<?xml version="1.0" ?><svg fill="none" height="24" viewBox="0 0 24 24" width="24" xmlns="http://www.w3.org/2000/svg"><path clip-rule="evenodd" d="M1 8.5C1 6.29086 2.79086 4.5 5 4.5H19C21.2091 4.5 23 6.29086 23 8.5V15.5C23 17.7091 21.2091 19.5 19 19.5H5C2.79086 19.5 1 17.7091 1 15.5V8.5ZM9.53819 7.61302C9.86892 7.44082 10.268 7.46694 10.5735 7.68077L15.5735 11.1808C15.8408 11.3679 16 11.6737 16 12C16 12.3263 15.8408 12.6321 15.5735 12.8192L10.5735 16.3192C10.268 16.5331 9.86892 16.5592 9.53819 16.387C9.20746 16.2148 9 15.8729 9 15.5V8.5C9 8.12712 9.20746 7.78522 9.53819 7.61302Z" fill="black" fill-rule="evenodd"/></svg>