<?xml version="1.0" ?><svg id="Layer_1_1_" style="enable-background:new 0 0 64 64;" version="1.1" viewBox="0 0 64 64" xml:space="preserve" xmlns="http://www.w3.org/2000/svg" xmlns:xlink="http://www.w3.org/1999/xlink"><path d="M57,26C57,12.215,45.785,1,32,1S7,12.215,7,26c0,9.479,5.44,18.187,13.901,22.39c0.165,0.746,0.491,1.451,0.969,2.048  l2.473,3.091C24.767,54.059,25,54.725,25,55.403V57h-2v6h20v-6h-2v-1.597c0-0.679,0.233-1.344,0.657-1.875l2.247-2.809  C44.611,49.837,45,48.728,45,47.597v-0.253C52.412,42.818,57,34.701,57,26z M55,26c0,0.335-0.019,0.668-0.034,1.001  c-2.812,0.003-5.343,1.673-6.477,4.318c-0.62,1.446-1.986,2.419-3.495,2.627C44.965,32.317,43.636,31,42,31  c-0.395,0-0.77,0.081-1.116,0.22c-0.151-0.558-0.455-1.049-0.87-1.428C40.011,29.72,40,29.649,40,29.576V28.44  c0-0.769,0.202-1.528,0.583-2.195l1.986-3.477C43.505,21.131,44,19.268,44,17.382c0-1.96,0.663-3.892,1.866-5.438  c0.642-0.826,1.406-1.601,2.267-2.317C52.368,13.801,55,19.598,55,26z M36.884,29.22C36.539,27.945,35.383,27,34,27  c-0.352,0-0.686,0.072-1,0.184v-4.391c2.62-0.558,4.849-2.256,6.065-4.688C39.677,16.883,40,15.514,40,14.146V13.64  c0-2.587-1.737-4.891-4.225-5.602C34.141,7.572,33,6.059,33,4.36V3.025c5.165,0.222,9.896,2.153,13.635,5.245  c-0.884,0.758-1.671,1.577-2.347,2.446C42.812,12.612,42,14.979,42,17.382c0,1.539-0.404,3.058-1.167,4.395l-1.986,3.476  C38.293,26.221,38,27.324,38,28.44V29C37.605,29,37.23,29.081,36.884,29.22z M31,3.025V4.36c0,2.587,1.737,4.891,4.225,5.602  C36.859,10.428,38,11.941,38,13.64v0.506c0,1.059-0.25,2.119-0.724,3.065c-0.876,1.751-2.431,3.007-4.276,3.523V20  c0-1.654-1.346-3-3-3s-3,1.346-3,3v0.788c-0.949-0.347-1.718-1.104-2.051-2.104C24.214,16.48,22.16,15,19.838,15h-0.602  c-1.615,0-3.067-0.897-3.789-2.341C15.155,12.073,15,11.417,15,10.764v-0.239C19,6.135,24.673,3.298,31,3.025z M9.34,22.084  c3.091-1.567,6.933-1.367,9.812,0.553l1.221,0.814C21.392,24.129,22,25.266,22,26.49c0,1.623-1.089,3.067-2.649,3.513l-0.377,0.107  C16.634,30.779,15,32.945,15,35.378c0,0.812-0.286,1.604-0.806,2.227l-1.147,1.377C10.473,35.221,9,30.716,9,26  C9,24.665,9.121,23.358,9.34,22.084z M14.279,40.627l1.451-1.741c0.819-0.982,1.27-2.228,1.27-3.507  c0-1.545,1.038-2.921,2.523-3.345l0.377-0.107c2.414-0.689,4.1-2.925,4.1-5.436c0-1.895-0.941-3.653-2.517-4.704l-1.221-0.814  C18.326,19.682,16.073,19,13.746,19c-1.316,0-2.617,0.247-3.856,0.68c0.732-2.558,1.896-4.933,3.409-7.044  c0.099,0.314,0.213,0.622,0.36,0.916C14.722,15.679,16.859,17,19.236,17h0.602c1.46,0,2.751,0.931,3.213,2.316  c0.608,1.825,2.127,3.139,3.949,3.542V44h-0.166l-1.525-8.388C25.035,34.099,23.718,33,22.18,33C20.427,33,19,34.427,19,36.18v0.639  c0,0.176,0.015,0.352,0.043,0.523l1.424,8.548C18.081,44.503,15.995,42.712,14.279,40.627z M41,61H25v-2h16V61z M43,47.597  c0,0.679-0.233,1.344-0.657,1.875l-2.247,2.809C39.389,53.163,39,54.272,39,55.403V57H27v-1.597c0-1.131-0.389-2.24-1.096-3.124  l-2.473-3.091c-0.319-0.399-0.533-0.876-0.617-1.381l-1.799-10.796C21.005,36.948,21,36.884,21,36.819V36.18  c0-0.651,0.529-1.18,1.18-1.18c0.571,0,1.06,0.408,1.162,0.969L25.166,46H29V20c0-0.551,0.449-1,1-1s1,0.449,1,1v10v10v4h2v-4V30  c0-0.551,0.449-1,1-1s1,0.449,1,1v2v12h2V32c0-0.551,0.449-1,1-1s1,0.449,1,1v2v10h2V34c0-0.551,0.449-1,1-1s1,0.449,1,1V47.597z   M45,44.967v-9.01c2.337-0.211,4.393-1.669,5.354-3.911c0.77-1.796,2.504-2.966,4.446-3.034C53.943,35.442,50.377,41.271,45,44.967z  "/></svg>