<svg width="247" height="144" viewBox="0 0 247 144"  xmlns="http://www.w3.org/2000/svg">
<path fill-rule="evenodd" clip-rule="evenodd" d="M105.506 0.66185C104.855 1.44007 103.045 5.73821 102.268 8.3521C101.986 9.29968 101.157 11.4197 100.426 13.0635C99.6948 14.7074 98.7937 17.013 98.4234 18.1871C98.0532 19.3613 97.5884 20.7703 97.3904 21.3182C97.1924 21.8662 96.7066 23.2111 96.3109 24.307C94.2099 30.1219 93.32 32.2585 92.8171 32.694C92.5108 32.959 92.2605 33.3791 92.2605 33.6276C92.2605 33.8764 92.0791 34.1272 91.8575 34.185C91.5632 34.2618 91.5661 35.0153 91.8688 36.9839C92.0966 38.4654 92.3451 40.0856 92.4214 40.5841C92.6729 42.2324 94.0642 44.9571 95.0576 45.7467C95.3178 45.9536 95.5307 46.2232 95.5307 46.3458C95.5307 46.4685 96.2789 47.1719 97.1935 47.9091C98.6306 49.0676 98.9972 49.2247 99.898 49.0699C100.87 48.9025 100.967 48.9674 101.335 50.0394C101.682 51.0482 101.914 51.2312 103.238 51.5423C104.068 51.737 105.397 52.3814 106.193 52.9743C107.616 54.0344 108.714 54.3284 109.157 53.7677C109.538 53.2838 110.481 53.448 110.382 53.9811C110.031 55.8692 112.317 56.4778 118.701 56.1965C121.046 56.0929 125.662 55.9833 128.96 55.9529C136.087 55.8868 137.143 55.6432 136.83 54.1363C136.608 53.0606 136.628 53.0518 138.044 53.6256C140.006 54.4201 142.093 52.9519 141.306 51.3308C140.724 50.1313 140.898 49.9389 141.842 50.7373C142.873 51.6086 143.155 51.6425 144.577 51.0667C146.191 50.4128 146.301 49.6346 144.986 48.1738C143.694 46.7372 143.661 46.6515 144.403 46.6515C144.703 46.6515 144.948 46.7785 144.948 46.9336C144.948 47.2823 147.111 48.9287 147.569 48.9287C150.147 48.9287 154.209 43.9292 154.738 40.1047C155.182 36.8982 155.121 36.1413 154.206 33.5579C153.68 32.0706 153.036 30.1493 152.775 29.2882C152.515 28.4272 152.039 27.2104 151.716 26.5842C151.16 25.5051 148.94 19.6277 148.174 17.2051C147.979 16.5869 147.32 14.7936 146.71 13.2201C146.101 11.6469 145.48 9.97514 145.329 9.50548C144.72 7.5995 141.887 0.658719 141.591 0.348456C141.193 -0.0691175 139.107 0.115902 138.715 0.603213C138.555 0.802749 138.001 2.0549 137.484 3.38562C136.968 4.71633 136.407 6.12532 136.239 6.51671C136.071 6.9081 135.734 7.86877 135.49 8.65154C134.669 11.2882 132.555 15.9063 131.873 16.5513C131.748 16.6691 129.939 16.563 127.851 16.3153C124.02 15.861 121.075 15.9 117.337 16.4551C115.821 16.6799 115.25 16.6671 114.954 16.4016C114.632 16.1129 112.954 12.1609 111.541 8.3669C109.187 2.04266 108.483 0.584711 107.638 0.282988C106.396 -0.160203 106.158 -0.118076 105.506 0.66185ZM108.176 2.60284C108.564 3.4249 109.416 5.63431 110.068 7.51297C110.72 9.39162 111.628 11.6972 112.085 12.6366C112.543 13.5759 113.025 14.7287 113.156 15.1984C113.56 16.6455 114.105 17.5697 114.65 17.7337C114.937 17.8199 115.862 17.7089 116.706 17.4872C119.911 16.6452 122.808 16.6549 131.234 17.5353C132.537 17.6716 132.624 17.6284 133.164 16.5806C133.475 15.9769 133.944 15.0987 134.208 14.6291C134.931 13.3365 136.45 9.54476 137.456 6.51671C138.903 2.16193 139.458 1.10846 140.303 1.10846C140.926 1.10846 140.968 1.17649 140.575 1.54738C140.222 1.88013 140.212 2.06657 140.53 2.31592C140.762 2.49724 140.951 2.93076 140.951 3.27945C140.951 3.64322 141.208 3.95235 141.554 4.00529C141.941 4.06421 142.387 4.71007 142.798 5.8051C143.15 6.74443 144.126 9.30623 144.965 11.498C145.805 13.6898 146.869 16.6358 147.33 18.0448C147.791 19.4538 148.766 22.0797 149.498 23.88C150.229 25.6804 151.313 28.5521 151.905 30.262C152.498 31.9719 153.147 33.6114 153.348 33.9057C153.549 34.2 153.809 35.3278 153.925 36.4117C154.228 39.2462 154.128 39.304 149.161 39.1398C146.944 39.0666 144.267 38.9977 143.213 38.9863C141.574 38.969 141.251 38.8733 140.98 38.3257C140.356 37.0593 138.073 35.835 136.336 35.835C134.336 35.835 131.73 37.7524 131.5 39.3931C131.282 40.9484 131.559 41.5715 132.957 42.6665C134.253 43.6818 134.601 43.8051 136.173 43.8051C138.621 43.8051 140.44 42.8316 141.095 41.1721C141.271 40.7267 141.867 40.674 146.724 40.674C149.711 40.674 152.414 40.7517 152.73 40.8468C153.341 41.0304 153.525 42.2418 152.982 42.5048C152.805 42.5908 152.55 43.0021 152.416 43.4191C152.283 43.8361 151.709 44.7017 151.143 45.3433C148.623 48.194 147.865 48.3899 146.082 46.6515C144.893 45.4925 143.986 45.2414 143.204 45.8545C142.542 46.3732 142.675 47.0347 143.676 48.19C144.708 49.3816 144.8 49.8578 144.085 50.3223C143.695 50.5762 143.329 50.4595 142.412 49.7878C140.284 48.231 138.376 48.9204 139.657 50.7832C140.892 52.5804 139.725 53.4836 137.69 52.3052L136.576 51.6599L135.809 52.2605C135.155 52.7731 135.099 52.9872 135.425 53.7213C135.786 54.5314 135.743 54.5988 134.692 54.886C134.078 55.0537 131.655 55.1909 129.308 55.1909C125.752 55.1909 125.004 55.1157 124.82 54.7406C124.302 53.6823 124.637 52.9095 126.063 51.8759C126.868 51.2924 127.618 50.531 127.729 50.1834C127.84 49.8361 128.245 49.4877 128.628 49.4092C129.743 49.1806 129.465 48.1898 128.1 47.5288C127.075 47.0324 126.289 46.9362 123.264 46.9362C119.441 46.9362 118.688 47.14 118.251 48.2942C118.049 48.8257 118.434 49.2882 120.418 50.8982C122.647 52.7065 122.822 52.9399 122.716 53.9524L122.601 55.0486L119.331 55.2635C115.99 55.4829 113.271 55.3363 112.177 54.8778C111.713 54.6828 111.614 54.3811 111.77 53.6299C112.027 52.39 111.339 52.1119 109.313 52.6356C108.056 52.9607 107.806 52.9459 107.192 52.511C106.81 52.2397 106.4 51.7139 106.281 51.3428C106.097 50.7684 105.807 50.6548 104.34 50.5811C102.756 50.5014 102.607 50.4299 102.5 49.7018C102.414 49.1143 102.672 48.6984 103.499 48.0933C104.669 47.2379 104.913 46.4301 104.179 45.8545C103.387 45.234 102.528 45.497 101.11 46.7942C99.4518 48.3107 98.7007 48.2934 97.341 46.7068C96.8454 46.1284 96.2346 45.4854 95.9831 45.2773C95.1939 44.6246 93.6718 41.7591 93.7862 41.1411C93.8687 40.6959 94.1645 40.5479 94.9857 40.5408C95.8298 40.5337 96.0758 40.403 96.0758 39.9624C96.0758 39.5411 95.7927 39.3681 94.9857 39.2969C93.0686 39.1272 92.8767 38.8087 93.0766 36.1262C93.2048 34.4027 93.4708 33.4116 93.9952 32.704C94.401 32.156 95.1579 30.5549 95.6772 29.1459C96.1964 27.737 96.7905 26.1785 96.9969 25.6827C97.2036 25.1868 98.0132 22.8812 98.7962 20.5591C99.5789 18.237 100.706 15.2482 101.3 13.9175C101.894 12.5868 102.727 10.4092 103.15 9.07851C104.078 6.16261 105.254 3.14054 105.724 2.4645C105.913 2.19267 106.068 1.77623 106.068 1.53941C106.068 1.3023 106.384 1.10846 106.769 1.10846C107.282 1.10846 107.658 1.5081 108.176 2.60284ZM109.343 36.3306C108.01 36.5239 106.465 37.4826 106.211 38.2733C106.001 38.9289 105.84 38.9673 103.213 38.9895C98.8664 39.0262 97.3475 39.2664 97.3475 39.918C97.3475 40.4343 98.9289 40.6729 102.389 40.6783C105.42 40.6831 105.608 40.7378 106.536 41.88C107.248 42.757 109.61 43.8057 110.868 43.804C113.071 43.8011 115.512 41.6529 115.514 39.7153C115.515 38.8153 115.258 38.4128 114.105 37.5093C113.329 36.9016 112.361 36.4043 111.954 36.4043C111.548 36.4043 110.997 36.3582 110.731 36.3019C110.465 36.2458 109.84 36.2586 109.343 36.3306ZM138.658 37.4097C139.153 37.6639 139.79 38.3069 140.074 38.8383C140.524 39.6826 140.519 39.943 140.033 40.8946C138.732 43.4425 134.735 43.6653 133.034 41.2851C132.062 39.926 132.333 38.9072 134.003 37.6366C135.122 36.7855 135.497 36.6602 136.537 36.7926C137.208 36.8777 138.163 37.1555 138.658 37.4097ZM112.095 37.4251C113.313 37.7894 113.689 38.0815 114.052 38.9431C114.45 39.8861 114.414 40.1454 113.742 41.1767C112.821 42.5911 112.62 42.6981 110.841 42.7175C109.024 42.7371 107.62 41.9965 107.197 40.7938C106.617 39.1472 107.265 38.014 109.157 37.3681C110.531 36.8988 110.323 36.8948 112.095 37.4251ZM126.858 47.9464C127.326 48.3124 126.323 50.4911 125.402 51.1119C123.942 52.0951 123.169 51.9365 121.034 50.2153C118.461 48.1414 118.774 47.816 123.358 47.8009C125.173 47.795 126.749 47.8604 126.858 47.9464ZM124.236 65.3615C123.537 65.4261 122.809 65.5978 122.619 65.7429C122.43 65.8884 121.819 66.0074 121.262 66.0074C120.349 66.0074 118.387 66.4158 111.7 67.9985C110.501 68.2823 108.294 68.9238 106.795 69.4242C105.296 69.9247 103.497 70.4547 102.798 70.6024C102.098 70.7498 100.954 71.0416 100.254 71.2505C98.3315 71.8252 94.5605 72.7594 91.7154 73.366C90.3165 73.6643 87.7003 74.307 85.9016 74.7944C84.103 75.2817 81.667 75.888 80.4883 76.1421C78.7038 76.5267 77.9727 76.8973 76.1185 78.357C74.8939 79.3213 73.3649 80.4038 72.721 80.7631C71.0892 81.6734 70.8497 82.6346 72.0143 83.6027C72.8678 84.3123 72.9423 84.5992 73.0586 87.6162C73.152 90.0339 73.0677 90.8958 72.7298 90.9844C72.4801 91.0498 72.2756 90.9206 72.2756 90.6972C72.2756 90.4737 71.418 89.5984 70.3705 88.7522C69.3225 87.9059 68.3004 87.0062 68.0994 86.7528C67.8981 86.4998 67.4156 85.9396 67.0272 85.5087C66.3673 84.7768 66.3615 84.7014 66.9363 84.3724C67.2746 84.1782 67.5519 83.8799 67.5519 83.7091C67.5519 83.5386 67.7564 83.2967 68.0061 83.1714C68.5286 82.9096 71.8944 79.8491 73.7348 77.9625C74.4219 77.258 75.947 75.7849 77.1239 74.689C78.3005 73.5932 79.5312 72.4403 79.8582 72.1272C80.1852 71.8141 81.1474 70.9092 81.9966 70.1165C82.8454 69.3235 83.5383 68.4909 83.5369 68.2663C83.534 67.8493 81.9864 67.146 81.0718 67.146C80.7935 67.146 80.1616 66.8969 79.6678 66.5926C78.6271 65.9513 77.9705 66.0671 76.4542 67.1599C75.8547 67.592 75.0371 67.9916 74.6374 68.0477C74.2377 68.1041 73.9794 68.2122 74.0629 68.2885C74.4074 68.6016 71.502 71.8856 68.5257 74.5467C65.464 77.2841 60.8904 80.8089 60.4002 80.8089C59.1346 80.8089 57.7702 81.6791 57.542 82.6318C57.0987 84.4831 57.1165 85.5115 57.6088 86.4653C58.2335 87.6751 58.2578 90.3175 57.6481 90.7137C57.3974 90.8768 56.7589 91.0954 56.2291 91.1996C54.7375 91.493 53.7863 92.5044 53.3306 94.282C53.1013 95.1766 52.9778 95.9426 53.0563 95.9842C53.1348 96.0257 53.8179 96.4712 54.5744 96.9739C55.679 97.7077 56.2717 97.8876 57.5867 97.8876C61.5727 97.8876 63.3667 94.683 60.8355 92.0837C59.357 90.5651 59.6804 89.3482 61.5622 89.3482C62.5858 89.3482 63.0825 89.6303 64.9436 91.2696C66.1431 92.3262 67.916 93.9595 68.8825 94.8988C69.8494 95.8381 71.1717 97.055 71.8206 97.6029C73.1262 98.7045 73.6 99.5311 73.1291 99.8844C72.9594 100.012 60.9874 100.184 46.5241 100.266L20.2278 100.416L18.0909 102.1C15.709 103.978 15.3657 104.877 16.9143 105.182C17.4423 105.285 21.9799 105.276 26.9976 105.162C32.0153 105.047 38.0832 104.995 40.4814 105.046C47.0499 105.186 50.641 105.122 54.6525 104.794C56.8708 104.613 58.9936 104.594 60.1029 104.747C61.1022 104.884 65.19 105.13 69.187 105.292C79.6816 105.719 79.7794 105.732 80.2459 106.781C80.4588 107.259 80.6329 108.025 80.6329 108.483C80.6329 109.122 80.7804 109.293 81.2688 109.219C81.7357 109.149 81.9642 108.741 82.1296 107.684C82.401 105.947 82.849 105.237 84.0699 104.611C84.8991 104.185 84.9914 103.956 84.9754 102.364L84.958 100.592L82.9599 99.3119C81.8607 98.6083 80.6834 97.9502 80.3429 97.8494C80.0028 97.749 78.6435 96.7686 77.3219 95.6713L74.9194 93.6757L74.7148 91.4409C74.6022 90.2116 74.5506 87.9429 74.6 86.399C74.6777 83.9724 74.7846 83.5486 75.3903 83.2699C76.6079 82.7098 79.3313 81.948 80.118 81.9478C80.5344 81.9475 80.981 81.8646 81.1103 81.7633C81.3963 81.5393 85.011 80.5465 85.5877 80.5336C86.3351 80.5169 86.4885 82.9682 86.0172 87.4016C85.4431 92.8007 85.4445 93.3896 86.0383 96.749C86.6305 100.098 86.6178 110.041 86.0194 111.605C85.6876 112.473 85.6982 113.137 86.0677 114.625C86.3282 115.674 86.6829 116.672 86.8555 116.844C87.0284 117.015 87.1294 117.857 87.0807 118.714C86.9932 120.246 87.0255 120.301 88.9608 121.889C90.4288 123.094 91.186 123.506 91.9363 123.506C92.852 123.506 92.965 123.389 93.1903 122.212C93.3266 121.5 93.3382 120.428 93.2161 119.83C93.094 119.232 93.1652 118.017 93.3742 117.131C93.6089 116.137 93.7815 108.424 93.8251 96.9915L93.8956 78.4629L96.8025 77.9123C98.4013 77.6098 100.036 77.2531 100.436 77.1199C102.427 76.4567 114.375 73.4998 117.835 72.8141C118.61 72.6604 119.336 72.6057 119.448 72.6928C119.853 73.0105 117.266 76.521 113.154 81.2344C111.555 83.067 109.914 84.9932 109.508 85.5146C107.956 87.5069 106.751 88.1339 106.289 87.1901C106.167 86.9424 106.068 85.2092 106.068 83.3385C106.068 79.4045 106.045 79.3788 102.954 79.9598C100.01 80.5132 99.7406 80.8752 99.8275 84.1637C99.9009 86.9319 99.5186 88.9961 98.8729 89.3186C98.1527 89.6784 98.0165 91.2815 98.6276 92.2072C98.9572 92.7065 99.1523 93.3381 99.0615 93.6108C98.9703 93.8832 99.0284 94.2917 99.1901 94.518C99.3518 94.7445 99.3605 95.6451 99.209 96.5196C99.0208 97.6049 99.0695 98.2548 99.362 98.5682C99.6621 98.8895 99.7548 100.415 99.6716 103.652C99.5593 108.001 99.14 110.381 98.3435 111.188C98.1175 111.418 98.2628 112.219 98.7657 113.516C99.4975 115.404 99.5339 116.112 99.5644 128.991C99.5818 136.414 99.7036 142.618 99.8344 142.777C100.226 143.253 102.334 144 103.285 144C103.772 144 104.532 143.771 104.973 143.491L105.775 142.982L105.947 128.761C106.041 120.939 106.108 112.33 106.096 109.629C106.073 104.644 106.163 104.323 107.409 104.943C108.332 105.403 109.814 107.464 109.806 108.277C109.802 108.747 110.005 109.323 110.258 109.558C110.51 109.793 110.776 110.237 110.848 110.544C110.935 110.916 111.416 111.184 112.285 111.345C113.279 111.529 113.786 111.858 114.405 112.721C114.852 113.345 115.531 114.008 115.912 114.195C116.294 114.381 116.606 114.656 116.606 114.806C116.606 114.955 117.022 115.418 117.532 115.835C118.041 116.251 118.5 116.899 118.552 117.274C118.768 118.858 119.755 120.536 121.13 121.661C124.098 124.087 127.143 127.096 127.143 127.602C127.143 127.704 127.581 128.306 128.116 128.939C129.136 130.146 130.583 130.906 131.864 130.906C132.281 130.906 133.082 131.172 133.643 131.497C134.983 132.273 137.087 132.17 137.242 131.32C137.304 130.983 136.54 129.807 135.425 128.524C132.437 125.084 130.995 123.331 128.369 119.948C127.033 118.225 125.416 116.304 124.777 115.678C124.137 115.052 123.008 113.707 122.269 112.689C119.865 109.38 116.769 105.708 114.879 103.925C114.428 103.501 113.632 102.513 113.108 101.73C112.175 100.335 112.167 100.275 112.693 98.6615C112.988 97.7564 113.089 96.9482 112.919 96.8657C112.748 96.7829 112.609 96.3798 112.609 95.9696C112.609 95.5595 112.42 94.8145 112.189 94.3141C111.807 93.4873 111.874 93.2826 112.928 92.0592C113.565 91.3194 114.485 90.0991 114.971 89.3477C115.457 88.5959 116.234 87.7443 116.698 87.4551C117.162 87.1656 117.753 86.526 118.01 86.0335C118.268 85.5411 118.752 84.9007 119.087 84.6103C119.421 84.32 119.926 83.7299 120.21 83.2995C120.493 82.8692 120.961 82.5168 121.248 82.5168C121.615 82.5168 121.708 82.3181 121.559 81.8518C121.417 81.4109 121.618 80.8949 122.155 80.319C122.6 79.8417 123.619 78.4566 124.418 77.2414C125.303 75.8959 126.26 74.8533 126.865 74.5757C127.487 74.29 127.791 73.9521 127.678 73.6706C127.578 73.4232 128.096 72.4307 128.828 71.4646C130.182 69.677 131.047 69.114 130.404 70.4379C130.21 70.8395 130.05 71.5824 130.05 72.0888C130.05 72.5952 129.846 73.1696 129.596 73.3654C129.346 73.561 129.12 74.2592 129.093 74.9168C128.978 77.7598 128.527 79.5106 127.499 81.1058C126.903 82.0295 126.416 83.0408 126.416 83.3531C126.416 83.6653 126.188 84.3413 125.908 84.8554C125.628 85.3695 124.959 86.7509 124.421 87.925C123.148 90.7034 121.627 93.6851 121.297 94.0449C120.801 94.5871 117.696 101.162 117.696 101.67C117.696 102.189 118.679 103.434 120.106 104.719C120.54 105.11 120.954 105.687 121.026 106C121.099 106.313 121.394 106.569 121.684 106.569C122.247 106.569 122.591 106.118 124.079 103.438C124.6 102.499 125.666 100.696 126.448 99.4315C127.23 98.1671 127.87 96.9895 127.87 96.8147C127.87 96.64 128.2 96.0584 128.604 95.5225C129.008 94.9865 129.568 93.8584 129.85 93.0156C130.743 90.3391 134.285 84.994 135.263 84.8443C135.594 84.7936 135.864 84.8816 135.864 85.0396C135.864 85.1978 136.395 85.3672 137.045 85.4164C137.95 85.4847 138.253 85.655 138.342 86.1466C138.406 86.4992 138.774 86.9202 139.161 87.0825C139.743 87.3261 139.855 87.664 139.816 89.0422C139.759 91.0171 139.988 91.398 141.101 91.1791C141.789 91.0439 142.042 91.1942 142.558 92.0467C142.902 92.6137 143.274 93.5194 143.386 94.0594C143.561 94.9056 143.489 95.0411 142.86 95.0411C142.459 95.0411 141.916 94.8396 141.655 94.5934C141.395 94.3472 140.524 93.8829 139.721 93.5621C136.131 92.1275 131.254 93.7534 130.57 96.6132C130.242 97.9832 130.659 99.0956 132.026 100.496C133.007 101.5 133.316 102.169 133.685 104.084C133.934 105.378 134.268 106.5 134.426 106.577C135.172 106.938 135.864 105.76 135.864 104.13V102.442L137.226 102.441C139.561 102.438 143.122 100.151 143.129 98.6501C143.13 98.3649 143.399 97.9214 143.727 97.6644C144.28 97.2315 144.402 97.2693 145.398 98.183C145.989 98.725 147.053 100.1 147.763 101.24C149.214 103.57 151.015 105.002 152.5 105.007C153.043 105.009 154.082 105.087 154.808 105.181C155.854 105.317 156.29 105.228 156.891 104.756C157.793 104.05 157.851 104.207 154.745 99.0025C153.553 97.0066 152.579 95.2227 152.579 95.0383C152.579 94.8535 151.516 92.9834 150.217 90.8819C148.918 88.7804 147.855 86.9956 147.855 86.9157C147.855 86.8357 147.297 85.8451 146.616 84.7148C145.934 83.5842 145.189 82.1057 144.96 81.4294C144.731 80.7528 144.23 79.7964 143.847 79.3037C143.465 78.811 143.056 77.8272 142.938 77.1179C142.587 75.005 141.177 72.0461 140.316 71.6149C140.065 71.4896 139.861 71.0171 139.861 70.5643C139.861 70.1117 139.684 69.6557 139.468 69.5512C139.252 69.4464 139.171 69.0625 139.288 68.6978C139.404 68.3332 139.341 67.9575 139.146 67.8633C138.664 67.6299 136.954 68.539 136.954 69.0289C136.954 69.4803 135.657 69.5671 135.319 69.1385C135.195 68.9819 134.777 68.8538 134.389 68.8538C134.001 68.8538 133.684 68.7118 133.684 68.5384C133.684 68.1166 131.881 68.4752 131.049 69.0625C130.46 69.4786 130.413 69.457 130.413 68.7653C130.413 67.6498 129.371 66.1523 128.226 65.6225C127.228 65.1606 126.756 65.1298 124.236 65.3615ZM128.053 66.6945C129.592 67.8994 129.572 68.6446 127.945 70.78C127.142 71.8341 125.391 74.2336 124.054 76.1123C122.718 77.9909 121.487 79.5678 121.32 79.6165C121.152 79.6652 120.406 80.7218 119.662 81.9648C118.917 83.2076 118.17 84.2246 118.002 84.2246C117.834 84.2246 117.696 84.3729 117.696 84.5543C117.696 84.7353 117.06 85.536 116.284 86.3333C115.507 87.1303 114.516 88.2951 114.082 88.9213C113.648 89.5475 112.721 90.7643 112.022 91.6254C110.966 92.9279 110.802 93.3344 111.044 94.0449C111.204 94.5145 111.346 96.1797 111.361 97.7453C111.386 100.406 111.696 102.109 112.217 102.442C112.339 102.52 113.217 103.481 114.168 104.577C115.118 105.673 116.358 107.082 116.923 107.708C117.488 108.334 118.819 109.935 119.882 111.266C120.945 112.597 123.218 115.38 124.933 117.451C133.116 127.331 133.431 127.754 132.948 128.21C132.541 128.595 132.391 128.591 131.573 128.171C130.722 127.734 130.624 127.733 130.218 128.169C129.814 128.602 129.725 128.6 129.042 128.135C128.636 127.859 127.859 126.992 127.316 126.21C126.139 124.512 125.062 123.439 122.515 121.426C120.918 120.164 120.553 119.676 120.24 118.386C120.036 117.541 119.619 116.586 119.315 116.264C119.011 115.941 118.382 115.27 117.917 114.771C117.453 114.272 116.641 113.462 116.113 112.97C115.584 112.478 115.152 111.893 115.152 111.669C115.152 111.137 113.352 109.558 112.745 109.558C112.487 109.558 111.693 108.65 110.982 107.54C110.272 106.431 109.454 105.338 109.165 105.112C108.876 104.885 108.115 104.128 107.474 103.429C106.833 102.729 106.189 102.157 106.043 102.157C105.441 102.157 104.911 105.216 104.946 108.487C105.035 116.773 104.687 141.761 104.48 141.923C104.098 142.222 101.222 142.028 100.951 141.684C100.811 141.507 100.701 135.633 100.706 128.632C100.713 119.279 100.592 115.501 100.252 114.39C99.8773 113.165 99.8776 112.358 100.254 110.13C101.088 105.195 100.876 92.783 99.9354 91.4056C99.588 90.897 99.6236 90.599 100.121 89.8489C100.576 89.1638 100.779 87.954 100.896 85.2209C101.073 81.0654 101.23 80.8089 103.594 80.8089C105.157 80.8089 105.01 80.4443 105.135 84.6516C105.177 86.0606 105.24 87.4343 105.276 87.7041C105.351 88.2686 107.208 89.1171 107.737 88.8293C107.932 88.7234 108.727 87.8681 109.502 86.9288C110.278 85.9894 111.146 85.0288 111.431 84.7939C111.716 84.5591 112.793 83.3505 113.823 82.1083C118.742 76.1809 119.517 75.2287 119.752 74.8314C119.891 74.5965 120.384 73.9265 120.849 73.3427C121.313 72.7586 121.693 72.0823 121.693 71.8392C121.693 71.2337 120.719 70.9921 119.761 71.3596C119.324 71.5269 117.741 71.9368 116.242 72.2704C114.743 72.604 110.983 73.5083 107.885 74.28C104.787 75.0517 101.108 75.948 99.7094 76.2719C98.3104 76.5959 96.7901 76.9807 96.3312 77.127C95.8723 77.2733 95.1267 77.3932 94.6746 77.3932C94.2226 77.3932 93.5617 77.56 93.2056 77.7638C92.6089 78.1056 92.5501 78.9519 92.4498 88.6514C92.3902 94.436 92.332 99.6168 92.3208 100.165C92.3095 100.713 92.3655 102.122 92.4451 103.296C92.7339 107.554 92.6456 115.427 92.2932 116.854C92.0948 117.657 92.0297 119.227 92.1489 120.341C92.3451 122.174 92.3026 122.367 91.7031 122.367C90.9771 122.367 88.7101 120.578 88.2573 119.648C88.1011 119.328 88.0553 118.728 88.1559 118.316C88.2562 117.904 88.076 116.948 87.7551 116.191C87.1734 114.82 87.1679 112.844 87.7246 105.858C87.9216 103.385 87.2784 94.9865 86.8031 93.8271C86.6095 93.3543 86.6291 92.047 86.8525 90.5537C87.3623 87.1479 87.3874 80.0088 86.8911 79.6199C86.426 79.2556 75.1163 82.0357 74.4303 82.683C73.9023 83.1814 72.7563 83.2099 72.5368 82.7302C72.2759 82.1604 79.1075 77.1623 80.4203 76.9625C81.3738 76.8173 87.7889 75.2751 96.4646 73.1058C97.6778 72.8024 98.8795 72.5542 99.1349 72.5542C99.3903 72.5542 100.115 72.3811 100.745 72.1696C101.847 71.7996 104.494 71.0166 107.158 70.2731C107.858 70.0778 109.095 69.6784 109.907 69.3858C110.72 69.0932 111.603 68.8538 111.869 68.8538C112.135 68.8538 113.269 68.6119 114.388 68.3164C117.916 67.3848 120.449 66.8622 121.543 66.8394C122.125 66.8274 123.255 66.6487 124.055 66.4423C126.227 65.8813 127.084 65.9354 128.053 66.6945ZM142.554 66.9655C142.257 67.5738 143.695 70.5993 146.005 74.2228C147.166 76.0448 148.323 78.0478 148.576 78.6741C148.828 79.3003 149.401 80.1969 149.847 80.6666C151.045 81.9258 154.759 87.6717 154.759 88.2666C154.759 88.5484 154.893 88.7789 155.058 88.7789C155.489 88.7789 157.302 91.959 157.302 92.7147C157.302 93.0648 157.546 93.4243 157.843 93.5137C158.14 93.6031 158.876 94.4354 159.478 95.3633C160.695 97.2403 160.877 98.7879 160.03 100.061C159.731 100.509 159.48 101.133 159.471 101.446C159.463 101.759 158.825 103.168 158.054 104.577C157.036 106.437 156.393 107.24 155.705 107.51C154.92 107.818 154.754 108.085 154.73 109.076C154.61 113.993 153.105 119.907 151.275 122.647C150.77 123.405 150.151 125.101 149.851 126.552C149.204 129.689 148.355 132.485 146.603 137.252C145.867 139.254 145.316 141.176 145.379 141.521C145.484 142.098 145.693 142.15 147.936 142.15C150.96 142.15 151.688 141.68 152.384 139.278C153.636 134.956 154.928 131.462 155.888 129.8C156.466 128.799 156.939 127.672 156.939 127.295C156.939 126.917 157.195 126.22 157.509 125.745C157.823 125.27 158.241 124.091 158.438 123.126C158.636 122.161 159.043 120.986 159.343 120.517C159.644 120.047 160.112 118.958 160.384 118.097C161.375 114.959 162.074 113.058 163.263 110.27C163.931 108.704 164.625 106.975 164.805 106.427C165.001 105.832 165.459 105.317 165.942 105.15C166.817 104.845 166.995 104.171 166.337 103.656C166.029 103.415 166.029 103.007 166.337 102.05C166.564 101.344 166.75 100.42 166.75 99.9965C166.75 99.573 167.303 97.9325 167.979 96.3511C169.718 92.2843 170.681 89.7257 171.265 87.6167C171.543 86.6122 172.375 84.2531 173.113 82.3744C174.926 77.7598 175.524 75.4428 175.075 74.7844C174.638 74.1448 172.84 74.085 172.2 74.689C171.951 74.9239 171.221 75.116 170.577 75.116C169.026 75.116 168.291 75.8097 167.84 77.6977C167.495 79.1397 166.942 80.7152 165.299 84.9362C164.933 85.8756 164.534 86.9965 164.413 87.4269C163.991 88.925 163.415 88.5225 160.864 84.9473C160.524 84.4714 160.05 83.7621 159.809 83.3707C159.388 82.685 157.857 80.2817 152.512 71.9098C150.053 68.0588 149.978 67.9797 148.138 67.2843C146.023 66.4853 142.878 66.3057 142.554 66.9655ZM79.8934 68.2845C81.0475 68.2845 80.8901 69.9113 79.6318 70.9898C79.0831 71.46 78.0138 72.4497 77.2547 73.1887C76.496 73.9279 75.6759 74.6959 75.4321 74.8954C75.1883 75.0949 73.8932 76.3471 72.5543 77.6778C71.2149 79.0085 69.2026 80.8658 68.082 81.8052C66.9614 82.7445 65.8288 83.8907 65.565 84.3524C65.1173 85.1366 65.1664 85.2775 66.311 86.4873C67.6325 87.884 67.6144 87.8684 69.0889 88.8709C69.6347 89.2418 70.3705 90.0493 70.724 90.6653C71.3984 91.8397 71.9365 92.4198 73.2483 93.3862C73.6836 93.707 74.2348 94.3383 74.4732 94.7898C74.7119 95.2412 75.0455 95.6104 75.2141 95.6104C75.3827 95.6104 75.9906 95.9628 76.5643 96.3932C78.8826 98.1315 80.2325 98.9966 81.3073 99.4321C82.5235 99.9245 83.3029 100.897 83.6597 102.368C83.9199 103.439 83.6568 104.15 83.0002 104.15C82.7466 104.15 82.349 104.329 82.1169 104.548C81.5217 105.11 78.9585 105.248 76.8176 104.834C75.8183 104.641 72.3846 104.395 69.187 104.289C65.9894 104.182 62.5556 104.019 61.5564 103.928C59.341 103.724 54.5115 103.769 50.8372 104.027C49.3384 104.132 47.458 104.217 46.6586 104.217C45.8592 104.216 40.218 104.228 34.1224 104.243C28.027 104.258 21.8651 104.273 20.4298 104.276C18.9942 104.28 17.6995 104.189 17.5531 104.074C17.2671 103.85 19.1835 102.178 19.7409 102.165C19.9251 102.161 20.3339 101.976 20.6493 101.754C21.1217 101.421 23.9693 101.335 36.7548 101.268C48.0255 101.209 52.4 101.275 52.7009 101.511C53.0112 101.754 53.3084 101.739 53.884 101.453C54.4741 101.16 56.7895 101.069 63.8539 101.064C71.6422 101.058 73.1909 100.987 73.9372 100.604C74.4223 100.355 74.8191 99.9501 74.8191 99.7039C74.8191 99.2439 73.5535 97.6823 72.7701 97.176C72.3021 96.8734 70.619 95.295 68.8236 93.475C67.9218 92.5607 65.2874 90.1768 63.3877 88.5561C63.1523 88.3551 62.4804 88.1297 61.8947 88.0548C59.3646 87.7323 59.2305 87.662 58.7876 86.4278C58.0107 84.2636 58.6884 82.2321 60.1865 82.2321C60.8442 82.2321 71.1793 73.9843 71.1888 73.452C71.1935 73.1887 74.3642 70.0445 76.0603 68.6213C77.4142 67.4853 77.524 67.448 78.3186 67.8559C78.7779 68.0915 79.4865 68.2845 79.8934 68.2845ZM147.753 68.0449C148.995 68.3403 149.331 68.8015 156.215 79.6703C158.823 83.7866 158.763 83.6978 160.814 86.5018C163.107 89.6352 163.644 90.1162 164.345 89.6611C164.658 89.4573 165.242 88.4388 165.643 87.3978C167.455 82.691 168.509 79.7255 168.741 78.684C168.879 78.0632 169.229 77.1965 169.518 76.7578C169.945 76.1123 170.17 76.0129 170.703 76.2364C171.14 76.4194 171.491 76.4114 171.744 76.213C171.955 76.0482 172.47 75.9987 172.89 76.1031C174.009 76.3812 173.878 77.474 172.229 81.6307C171.446 83.6052 170.615 85.9894 170.382 86.9288C169.975 88.5723 169.347 90.2258 167.028 95.7527C166.437 97.1617 165.82 98.8909 165.657 99.5954C164.612 104.112 164.732 103.755 161.627 111.551C160.827 113.557 160.003 115.871 159.446 117.67C159.252 118.297 158.841 119.234 158.533 119.753C158.225 120.271 157.72 121.68 157.411 122.884C157.103 124.087 156.715 125.204 156.55 125.367C156.384 125.53 156.07 126.299 155.85 127.075C155.631 127.852 155.129 129.011 154.736 129.653C154.343 130.294 153.762 131.575 153.445 132.499C152.262 135.949 151.802 137.353 151.345 138.902C151.087 139.778 150.759 140.642 150.616 140.824C150.472 141.005 149.548 141.154 148.56 141.154C146.825 141.154 146.765 141.126 146.765 140.335C146.765 139.885 147.017 138.957 147.325 138.273C148.306 136.094 150.594 128.759 151.285 125.575C151.443 124.847 152.582 122.364 152.952 121.94C153.089 121.783 153.651 120.118 154.201 118.24C154.751 116.361 155.428 114.307 155.706 113.676C155.985 113.044 156.212 111.986 156.212 111.325C156.212 110.663 156.518 109.578 156.892 108.914C158.932 105.297 159.814 103.552 160.378 102.015C160.723 101.076 161.131 100.179 161.286 100.022C161.441 99.8659 161.681 99.2436 161.821 98.6393C162.051 97.6385 161.745 97.0186 158.374 91.6655C154.005 84.725 154.467 85.4443 152.361 82.3167C151.432 80.9396 150.448 79.6105 150.172 79.3632C149.897 79.1161 149.672 78.7125 149.672 78.4663C149.672 78.2203 149.018 77.0171 148.218 75.7926C147.419 74.5681 146.765 73.4024 146.765 73.2026C146.765 73.0025 146.623 72.8388 146.45 72.8388C146.277 72.8388 145.618 71.7276 144.987 70.3696C143.542 67.2635 143.747 67.0916 147.753 68.0449ZM141.096 70.6756C140.963 70.9471 141.034 71.31 141.254 71.4822C141.545 71.7099 141.72 71.6607 141.896 71.3018C142.029 71.0302 141.958 70.6673 141.738 70.4951C141.447 70.2674 141.272 70.3166 141.096 70.6756ZM138.278 71.6413C140.105 72.922 141.143 74.496 141.417 76.402C141.531 77.1876 142.098 78.5966 142.679 79.5331C143.259 80.4696 143.941 81.6842 144.195 82.2321C145.667 85.417 146.177 86.3694 146.455 86.4542C146.625 86.5066 146.765 86.7147 146.765 86.9171C146.765 87.1192 147.682 88.7417 148.803 90.5224C149.924 92.3031 151.253 94.6534 151.756 95.7448C152.259 96.8364 153.467 98.9991 154.441 100.551C155.415 102.102 156.212 103.547 156.212 103.761C156.212 104.048 155.625 104.15 153.98 104.15C151.979 104.15 151.642 104.062 150.717 103.304C150.149 102.839 149.323 101.846 148.881 101.098C148.438 100.35 147.383 98.9052 146.536 97.8876C145.493 96.6346 144.914 95.578 144.744 94.6142C144.606 93.8314 144.371 93.0629 144.221 92.9063C144.071 92.7497 143.494 91.5969 142.937 90.3445C142.38 89.0921 141.727 87.9748 141.487 87.8615C141.247 87.7485 140.847 87.0845 140.597 86.3859C140.347 85.6877 139.69 84.7996 139.135 84.4128C138.581 84.0257 138.065 83.5623 137.988 83.3827C137.912 83.203 137.231 82.9466 136.475 82.8131C135.31 82.6073 134.994 82.6611 134.393 83.1666C134.003 83.4945 133.684 83.9776 133.684 84.24C133.684 84.5024 133.397 85.0225 133.048 85.3959C132.122 86.3839 131.14 87.8214 131.14 88.188C131.14 88.3628 130.76 88.9833 130.296 89.5674C129.831 90.1512 129.242 91.2696 128.985 92.0524C128.729 92.8351 128.132 94.1445 127.659 94.9623C127.186 95.7798 126.695 96.7723 126.568 97.1683C126.442 97.5639 126.192 97.8876 126.014 97.8876C125.835 97.8876 125.69 98.0865 125.69 98.3299C125.69 98.9627 122.103 104.719 121.708 104.719C121.354 104.719 119.876 103.209 119.876 102.847C119.876 102.727 119.615 102.403 119.296 102.127C118.678 101.592 118.577 101.869 121.704 95.5111C122.078 94.7516 122.637 93.8277 122.946 93.4574C123.256 93.087 123.51 92.534 123.51 92.2286C123.51 91.9228 123.633 91.6302 123.784 91.5779C123.935 91.5258 124.327 90.8426 124.655 90.0598C124.982 89.2771 125.691 87.74 126.23 86.6441C126.769 85.5482 127.379 84.0752 127.585 83.3707C127.791 82.6662 128.233 81.7696 128.566 81.3782C130.563 79.031 131.08 77.8503 130.931 75.9836C130.815 74.5379 130.944 73.8863 131.539 72.9237C132.208 71.8409 132.436 71.7003 133.522 71.7003C134.376 71.7003 134.866 71.5278 135.137 71.131C135.702 70.3047 136.573 70.4464 138.278 71.6413ZM178.866 81.366C177.799 81.74 177.271 82.1439 176.973 82.8125C176.122 84.7256 176.687 86.0842 178.896 87.4383C180.104 88.1786 180.295 88.2111 181.737 87.9176C182.74 87.7135 183.704 87.2347 184.482 86.5542C185.572 85.6017 185.661 85.3905 185.451 84.254C185.173 82.7453 184.735 82.1493 183.494 81.5931C181.898 80.8775 180.46 80.8069 178.866 81.366ZM181.466 82.2321C181.589 82.3887 182.057 82.5168 182.505 82.5168C183.666 82.5168 184.191 83.0468 184.191 84.2181C184.191 85.1722 183.453 86.3765 182.577 86.8533C181.07 87.6728 178.301 86.4656 177.829 84.7834C177.519 83.6767 178.342 82.3744 179.351 82.3744C179.778 82.3744 180.252 82.2785 180.403 82.161C180.783 81.8661 181.199 81.894 181.466 82.2321ZM59.8246 92.6726C60.9169 93.5798 61.0575 93.8559 60.8784 94.7363C60.2501 97.8193 54.4708 97.7037 54.4708 94.6085C54.4708 93.2379 54.9901 92.5528 56.3941 92.0714C58.1332 91.4751 58.4493 91.5303 59.8246 92.6726ZM140.174 94.7699C142.355 96.0277 143.07 98.0159 141.678 98.9499C141.278 99.218 140.951 99.5991 140.951 99.797C140.951 100.449 138.305 101.524 136.381 101.655C134.712 101.768 134.479 101.71 133.928 101.043C133.594 100.638 132.911 99.8718 132.412 99.3398C130.94 97.772 131.392 96.1683 133.744 94.6181C134.783 93.9333 135.158 93.8559 136.942 93.9569C138.351 94.0369 139.331 94.2831 140.174 94.7699ZM174.992 99.7232C173.121 100.246 172.393 100.816 171.878 102.16C171.404 103.402 171.605 103.914 173.131 105.352C173.584 105.779 174.155 106.611 174.401 107.203C174.646 107.793 175.068 108.38 175.34 108.505C175.673 108.659 175.834 109.317 175.834 110.533C175.834 112.379 176.331 113.152 177.236 112.714C177.494 112.589 177.801 111.924 177.918 111.236C178.035 110.548 178.364 109.851 178.648 109.686C178.933 109.522 179.274 108.709 179.407 107.88C179.637 106.445 179.716 106.354 181.039 105.999C181.941 105.757 182.802 105.709 183.489 105.863C184.24 106.032 184.628 105.994 184.824 105.731C185.382 104.982 189.048 104.421 192.25 104.594C195.908 104.792 230.711 104.748 231.131 104.545C231.714 104.262 231.412 103.934 230.427 103.779C229.785 103.679 229.022 103.174 228.302 102.374C226.089 99.9145 227.141 100.012 203.729 100.1C185.944 100.166 182.933 100.117 181.792 99.7437C180.168 99.2126 176.856 99.2023 174.992 99.7232ZM236.333 99.9276C234.931 100.535 233.972 101.409 233.972 102.079C233.972 103.666 236.283 105.569 238.213 105.572C239.349 105.574 241.144 104.282 241.431 103.257C241.749 102.123 240.747 100.34 239.55 99.9128C238.436 99.5152 237.273 99.5203 236.333 99.9276ZM6.11556 100.712C5.37539 101.292 5.05345 101.826 5.05345 102.473C5.05345 103.523 6.34957 105.204 7.35608 105.458C8.61295 105.776 10.437 105.29 11.4192 104.376C12.2168 103.633 12.3374 103.312 12.1354 102.464C11.8483 101.261 11.4519 100.838 10.094 100.288C8.52974 99.6546 7.2983 99.7856 6.11556 100.712ZM182.011 100.735C183.678 100.968 188.468 101.018 198.286 100.905C208.971 100.781 212.376 100.825 212.959 101.095C213.563 101.374 213.752 101.373 213.883 101.089C214.008 100.819 215.156 100.768 218.65 100.88C221.181 100.96 223.769 101.092 224.4 101.173C225.556 101.32 227.794 102.828 227.794 103.459C227.794 103.975 226.734 104.042 219.437 103.991C215.74 103.966 209.935 103.937 206.538 103.929C203.14 103.92 199.339 103.898 198.09 103.88C196.841 103.863 193.897 103.823 191.549 103.791C185.892 103.716 181.971 104.083 181.372 104.744C181.08 105.067 180.198 105.318 178.92 105.443C177.582 105.574 176.924 105.769 176.924 106.033C176.924 106.25 176.797 106.427 176.641 106.427C176.111 106.427 174.744 105.542 174.744 105.198C174.744 105.01 174.417 104.696 174.017 104.5C173.028 104.017 172.996 101.912 173.968 101.26C175.751 100.064 176.756 99.9985 182.011 100.735ZM239.62 101.148C240.608 101.922 240.721 102.457 240.089 103.386C239.109 104.827 237.909 105.036 236.439 104.022C234.651 102.789 234.759 101.331 236.684 100.72C237.954 100.317 238.697 100.425 239.62 101.148ZM10.1405 101.303C11.6238 102.465 10.5173 104.719 8.46324 104.719C7.47599 104.719 6.14354 103.471 6.14354 102.546C6.14354 101.666 7.35862 100.734 8.50539 100.734C9.00501 100.734 9.74082 100.99 10.1405 101.303ZM0.52198 101.478C-0.140427 101.997 -0.149511 102.097 0.365371 103.253C0.840649 104.321 1.55611 104.401 2.33225 103.473C3.34094 102.267 1.75123 100.515 0.52198 101.478ZM244.353 101.466C243.419 102.198 243.621 103.535 244.725 103.929C245.56 104.227 245.744 104.186 246.352 103.567C247.192 102.71 247.199 102.598 246.466 101.72C245.787 100.909 245.16 100.834 244.353 101.466ZM135.298 129.831C136.135 130.767 136.03 131.268 135.046 131.037C133.873 130.762 133.186 130.167 133.441 129.648C133.755 129.006 134.639 129.093 135.298 129.831Z" />
</svg>
