<?xml version="1.0" encoding="utf-8"?>
<svg version="1.1" id="playstationcontroller" xmlns="http://www.w3.org/2000/svg" xmlns:xlink="http://www.w3.org/1999/xlink"
	 x="0px" y="0px" viewBox="0 0 224.2447 168" enable-background="new 0 0 224.2447 168" xml:space="preserve">
<g>
	<rect x="44" y="60" fill="none" width="8" height="8"/>
	<path fill="none" d="M136,48c0,10.5016,4.1,20.042,10.7432,27.1864c1.854,1.1888,3.4544,2.6976,4.8244,4.4136
		C158.334,84.8436,166.7964,88,176,88c22.0568,0,40-17.9452,40-40S198.0568,8,176,8S136,25.9452,136,48z M176,80
		c-6.6172,0-12-5.3828-12-12s5.3828-12,12-12s12,5.3828,12,12S182.6172,80,176,80z M200,36c6.6172,0,12,5.3828,12,12
		s-5.3828,12-12,12s-12-5.3828-12-12S193.3828,36,200,36z M176,16c6.6172,0,12,5.3828,12,12s-5.3828,12-12,12s-12-5.3828-12-12
		S169.3828,16,176,16z M164,48c0,6.6172-5.3828,12-12,12s-12-5.3828-12-12s5.3828-12,12-12S164,41.3828,164,48z"/>
	<rect x="44" y="44" fill="none" width="8" height="8"/>
	<rect x="60" y="44" fill="none" width="8" height="8"/>
	<rect x="44" y="28" fill="none" width="8" height="8"/>
	<circle fill="none" cx="152" cy="48" r="4"/>
	<circle fill="none" cx="176" cy="68" r="4"/>
	<circle fill="none" cx="176" cy="28" r="4"/>
	<circle fill="none" cx="200" cy="48" r="4"/>
	<rect x="28" y="44" fill="none" width="8" height="8"/>
	<path fill="none" d="M146.0184,85.4248c-1.5228-1.222-2.9692-2.5308-4.332-3.9264C139.986,80.5736,138.068,80,136,80
		c-6.6172,0-12,5.3828-12,12s5.3828,12,12,12c6.5604,0,11.892-5.2952,11.9832-11.8344l-1.2-5.334
		C146.5504,86.3488,146.3112,85.8692,146.0184,85.4248z"/>
	<path fill="none" d="M176,96c-7.12,0-13.8596-1.6004-19.9424-4.3936l11.6984,51.9952c2,8.8904,11.3848,16.3984,20.494,16.3984
		h3.992c8.9748,0,16.7992-7.2852,17.4396-16.242l4.7988-67.1872C205.7236,88.3336,191.758,96,176,96z"/>
	<path fill="none" d="M88,80c-2.0684,0-3.9864,0.5736-5.6868,1.4988c-1.3628,1.3956-2.8088,2.704-4.3316,3.926
		c-0.132,0.2008-0.2248,0.426-0.3448,0.6344l-1.5436,6.8616C76.5724,99.1016,81.698,104,88,104c6.6172,0,12-5.3828,12-12
		S94.6172,80,88,80z"/>
	<path fill="none" d="M128,48c0-10.4544,3.3968-20.1088,9.0924-28H86.9076C92.6032,27.8912,96,37.5456,96,48
		c0,8.8072-2.4248,17.0408-6.5816,24.1432c9.0104,0.6464,16.412,7.198,18.1772,15.8568h8.8088
		c1.7652-8.6588,9.1668-15.2104,18.1772-15.8568C130.4248,65.0408,128,56.8072,128,48z M120,40h-16v-8h16V40z"/>
	<path fill="none" d="M68.0448,91.5568C61.9352,94.3804,55.1604,96,48,96c-15.5952,0-29.4352-7.5092-38.2084-19.0656l4.7728,66.8236
		C15.2032,152.7148,23.0272,160,32.004,160h3.992c9.1096,0,18.4944-7.508,20.4944-16.3984l11.5408-51.2948
		C68.0292,92.202,68,92.1048,68,92C68,91.848,68.0416,91.7076,68.0448,91.5568z"/>
	<path fill="none" d="M48,88c9.2036,0,17.666-3.1564,24.4324-8.4c1.37-1.716,2.9704-3.2248,4.8244-4.4136
		C83.9,68.042,88,58.5016,88,48C88,25.9452,70.0568,8,48,8S8,25.9452,8,48S25.9432,88,48,88z M20,40c0-2.2108,1.7912-4,4-4h12V24
		c0-2.2108,1.7912-4,4-4h16c2.2088,0,4,1.7892,4,4v12h12c2.2088,0,4,1.7892,4,4v16c0,2.2108-1.7912,4-4,4H60v12
		c0,2.2108-1.7912,4-4,4H40c-2.2088,0-4-1.7892-4-4V60H24c-2.2088,0-4-1.7892-4-4V40z"/>
	<path d="M176,40c6.6172,0,12-5.3828,12-12s-5.3828-12-12-12s-12,5.3828-12,12S169.3828,40,176,40z M176,24c2.2052,0,4,1.7928,4,4
		s-1.7948,4-4,4s-4-1.7928-4-4S173.7948,24,176,24z"/>
	<path d="M176,56c-6.6172,0-12,5.3828-12,12s5.3828,12,12,12s12-5.3828,12-12S182.6172,56,176,56z M176,72c-2.2052,0-4-1.7928-4-4
		s1.7948-4,4-4s4,1.7928,4,4S178.2052,72,176,72z"/>
	<path d="M140,48c0,6.6172,5.3828,12,12,12s12-5.3828,12-12s-5.3828-12-12-12S140,41.3828,140,48z M152,44c2.2052,0,4,1.7928,4,4
		s-1.7948,4-4,4s-4-1.7928-4-4S149.7948,44,152,44z"/>
	<path d="M200,60c6.6172,0,12-5.3828,12-12s-5.3828-12-12-12s-12,5.3828-12,12S193.3828,60,200,60z M200,44c2.2052,0,4,1.7928,4,4
		s-1.7948,4-4,4s-4-1.7928-4-4S197.7948,44,200,44z"/>
	<path d="M223.8764,50.4376C223.9176,49.6248,224,48.8228,224,48c0-26.4688-21.5332-48-48-48
		c-12.1468,0-23.2216,4.572-31.6852,12.0384C144.2484,12.0352,144.1924,12,144.1252,12H80c-0.1036,0-0.1904,0.0512-0.292,0.0588
		C71.2412,4.5804,60.158,0,48,0C21.5332,0,0,21.5312,0,48c0,1.0568,0.0912,2.0908,0.1588,3.1308
		c-0.0856,0.3752-0.1776,0.7508-0.1492,1.1544L6.584,144.328C7.5156,157.3788,18.92,168,32.004,168h3.992
		c13.012,0,25.4416-9.9452,28.2988-22.6408l8.9848-39.9328C76.9396,109.4364,82.1564,112,88,112c9.6576,0,17.7372-6.8828,19.5956-16
		h8.8088c1.8584,9.1172,9.938,16,19.5956,16c5.9528,0,11.2472-2.6668,14.914-6.808l9.0372,40.1672
		C162.8084,158.0548,175.2384,168,188.25,168h3.992c13.0824,0,24.4864-10.6172,25.42-23.672l6.5744-92.0428
		C224.2836,51.6216,224.124,51.0084,223.8764,50.4376z M216,48c0,22.0548-17.9432,40-40,40c-9.2036,0-17.666-3.1564-24.4324-8.4
		c-1.37-1.716-2.9704-3.2248-4.8244-4.4136C140.1,68.042,136,58.5016,136,48c0-22.0548,17.9432-40,40-40S216,25.9452,216,48z M48,8
		c22.0568,0,40,17.9452,40,40c0,10.5016-4.1,20.042-10.7432,27.1864c-1.854,1.1888-3.4544,2.6976-4.8244,4.4136
		C65.666,84.8436,57.2036,88,48,88C25.9432,88,8,70.0548,8,48S25.9432,8,48,8z M56.4904,143.6016
		C54.4904,152.492,45.1056,160,35.996,160h-3.992c-8.9768,0-16.8008-7.2852-17.4396-16.242L9.7916,76.9344
		C18.5648,88.4908,32.4048,96,48,96c7.1604,0,13.9352-1.6196,20.0448-4.4432C68.0416,91.7076,68,91.848,68,92
		c0,0.1048,0.0292,0.202,0.0312,0.3068L56.4904,143.6016z M88,104c-6.302,0-11.4276-4.8984-11.9068-11.0792l1.5436-6.8616
		c0.12-0.2084,0.2128-0.4336,0.3448-0.6344c1.5228-1.222,2.9688-2.5304,4.3316-3.926C84.0136,80.5736,85.9316,80,88,80
		c6.6172,0,12,5.3828,12,12S94.6172,104,88,104z M116.4044,88h-8.8088c-1.7652-8.6588-9.1668-15.2104-18.1772-15.8568
		C93.5752,65.0408,96,56.8072,96,48c0-10.4544-3.3968-20.1088-9.0924-28h50.1848C131.3968,27.8912,128,37.5456,128,48
		c0,8.8072,2.4248,17.0408,6.5816,24.1432C125.5712,72.7896,118.1696,79.3412,116.4044,88z M136,104c-6.6172,0-12-5.3828-12-12
		s5.3828-12,12-12c2.068,0,3.986,0.5736,5.6864,1.4984c1.3628,1.3956,2.8092,2.7044,4.332,3.9264
		c0.2928,0.4444,0.532,0.924,0.7648,1.4068l1.2,5.334C147.892,98.7048,142.5604,104,136,104z M192.242,160h-3.992
		c-9.1092,0-18.494-7.508-20.494-16.3984l-11.6984-51.9952C162.1404,94.3996,168.88,96,176,96
		c15.758,0,29.7236-7.6664,38.4804-19.4292l-4.7988,67.1872C209.0412,152.7148,201.2168,160,192.242,160z"/>
	<path d="M24,60h12v12c0,2.2108,1.7912,4,4,4h16c2.2088,0,4-1.7892,4-4V60h12c2.2088,0,4-1.7892,4-4V40c0-2.2108-1.7912-4-4-4H60V24
		c0-2.2108-1.7912-4-4-4H40c-2.2088,0-4,1.7892-4,4v12H24c-2.2088,0-4,1.7892-4,4v16C20,58.2108,21.7912,60,24,60z M52,68h-8v-8h8
		V68z M44,52v-8h8v8H44z M68,44v8h-8v-8H68z M44,28h8v8h-8V28z M28,44h8v8h-8V44z"/>
	<rect x="104" y="32" width="16" height="8"/>
</g>
</svg>
